<svg width="17" height="16" viewBox="0 0 17 16" fill="none" xmlns="http://www.w3.org/2000/svg">
<g clip-path="url(#clip0_4569_15948)">
<path d="M16.5 8C16.5 3.58176 12.9182 0 8.5 0C4.08176 0 0.5 3.58176 0.5 8C0.5 11.7517 3.08304 14.8998 6.56752 15.7645V10.4448H4.91792V8H6.56752V6.94656C6.56752 4.22368 7.79984 2.9616 10.4731 2.9616C10.98 2.9616 11.8546 3.06112 12.2123 3.16032V5.37632C12.0235 5.35648 11.6955 5.34656 11.2882 5.34656C9.97648 5.34656 9.4696 5.84352 9.4696 7.13536V8H12.0827L11.6338 10.4448H9.4696V15.9414C13.4309 15.463 16.5003 12.0902 16.5003 8H16.5Z" fill="#0866FF"/>
<path d="M11.6334 10.4446L12.0824 7.99983H9.46928V7.13519C9.46928 5.84335 9.97616 5.34639 11.2878 5.34639C11.6952 5.34639 12.0232 5.35631 12.212 5.37615V3.16015C11.8542 3.06063 10.9797 2.96143 10.4728 2.96143C7.79952 2.96143 6.5672 4.22351 6.5672 6.94639V7.99983H4.9176V10.4446H6.5672V15.7643C7.18608 15.9179 7.83344 15.9998 8.49968 15.9998C8.82768 15.9998 9.1512 15.9797 9.46896 15.9413V10.4446H11.6331H11.6334Z" fill="white"/>
</g>
<defs>
<clipPath id="clip0_4569_15948">
<rect width="16" height="16" fill="white" transform="translate(0.5)"/>
</clipPath>
</defs>
</svg>
