<svg width="180" height="50" viewBox="0 0 375 97" fill="none" xmlns="http://www.w3.org/2000/svg">
<path d="M27.9836 4.64358C40.0866 1.32036 52.3344 0.632004 64.7272 2.57867C73.7844 3.90881 81.5637 7.6731 88.0655 13.8719C92.1466 18.0087 94.6822 22.9017 95.6724 28.5507C96.0653 30.9609 95.832 33.3028 94.9727 35.5767C93.6526 37.6838 91.8644 39.3296 89.6084 40.5143C85.1951 42.5894 80.5487 43.8817 75.6693 44.391C69.5815 45.1218 63.4781 45.407 57.359 45.2469C57.3569 38.484 57.3205 31.7227 57.2495 24.9631C54.9202 25.0727 52.596 25.1847 50.2769 25.2987C50.4228 31.9284 47.6649 37.1078 42.0031 40.8364C38.8647 42.7648 35.4767 44.0827 31.8391 44.7901C29.8526 45.0968 27.8763 45.4023 25.9108 45.7065C25.8991 47.744 25.8758 49.7814 25.8407 51.8187C25.9695 52.0301 26.1526 52.1603 26.3904 52.2087C32.5299 52.3149 38.1179 54.0181 43.1549 57.3183C47.9564 60.9743 50.3614 65.7947 50.37 71.7793C50.4488 71.9953 50.5729 72.1765 50.7419 72.323C52.8014 72.2539 54.8606 72.2474 56.9191 72.3034C57.0379 72.201 57.1564 72.0984 57.2753 71.996C57.3123 65.5014 57.3155 59.0149 57.2844 52.5363C57.3129 52.3304 57.4133 52.1614 57.5854 52.0296C66.2309 51.7424 74.7822 52.4532 83.2389 54.1618C85.9828 54.9028 88.5953 55.9624 91.0767 57.3407C94.7687 59.8497 96.313 63.2927 95.7097 67.6693C94.3961 75.7284 90.3343 82.1769 83.5244 87.0145C75.9311 92.1072 67.5219 94.9584 58.2972 95.568C47.6028 96.6589 37.1589 95.6259 26.9655 92.469C14.6643 87.768 6.83156 79.1711 3.46758 66.6781C0.288204 53.3807 0.721666 40.224 4.76797 27.208C8.93227 16.2576 16.6709 8.73626 27.9836 4.64358Z" fill="url(#paint0_linear_283_1221)"/>
<path d="M123.133 76H109.536V24.3462H130.687C144.643 24.3462 152.629 30.6051 152.629 41.6121C152.629 48.2307 148.672 53.6982 141.694 56.6478L154.355 76H138.168L127.593 58.8061H123.133V76ZM123.133 35.5691V47.5832H130.111C136.154 47.5832 138.96 45.7128 138.96 41.6121C138.96 37.5115 136.154 35.5691 130.111 35.5691H123.133ZM174.068 76H160.471V24.3462H174.068V76ZM217.168 76L196.593 43.7704V76H184.147V24.3462H198.751L217.815 54.2018V24.3462H230.261V76H217.168ZM253.948 76H240.351V24.3462H253.948V76ZM287.839 77.0791C272.804 77.0791 261.005 66.0002 261.005 49.8854C261.005 34.6338 272.228 23.2671 287.408 23.2671C300.357 23.2671 309.925 30.749 313.522 42.3315H297.407C296.112 38.3748 292.3 35.4252 287.048 35.4252C280.357 35.4252 274.962 40.1014 274.962 50.2451C274.962 58.878 279.206 65.5685 288.559 65.5685C294.458 65.5685 298.127 62.2592 299.638 57.9428H287.192V47.2235H314.17C315.249 64.2736 304.961 77.0791 287.839 77.0791ZM344.881 77.0791C329.989 77.0791 318.263 65.7844 318.263 50.1012C318.263 34.418 329.989 23.2671 344.881 23.2671C359.845 23.2671 371.571 34.418 371.571 50.1012C371.571 65.7844 359.845 77.0791 344.881 77.0791ZM344.881 64.9211C353.011 64.9211 357.543 58.2305 357.543 50.1012C357.543 41.9718 353.011 35.4252 344.881 35.4252C336.752 35.4252 332.22 41.9718 332.22 50.1012C332.22 58.2305 336.752 64.9211 344.881 64.9211Z" fill="white"/>
<defs>
<linearGradient id="paint0_linear_283_1221" x1="3.05466" y1="22.1132" x2="93.1308" y2="95.8122" gradientUnits="userSpaceOnUse">
<stop stop-color="#25E2EC"/>
<stop offset="1" stop-color="#0099FF"/>
</linearGradient>
</defs>
</svg>
